<svg id="Layer_1" data-name="Layer 1" xmlns="http://www.w3.org/2000/svg" xmlns:xlink="http://www.w3.org/1999/xlink" viewBox="0 0 200 344.43"><defs><style>.cls-1{fill:url(#linear-gradient);}.cls-2{fill:#ababab;}</style><linearGradient id="linear-gradient" x1="100.5" y1="1046.33" x2="99.5" y2="1046.33" gradientTransform="matrix(200, 0, 0, -178.95, -19900.33, 187505.5)" gradientUnits="userSpaceOnUse"><stop offset="0" stop-color="#eb0d8c"/><stop offset="0.5" stop-color="#f26869"/></linearGradient></defs><path class="cls-1" d="M48.58,196.59a80,80,0,1,0,112.7,9.86,79.17,79.17,0,0,0-9.86-9.86,10,10,0,0,1,12.86-15.32,100,100,0,1,1-128.56,0,10,10,0,0,1,12.86,15.32Z" transform="translate(0 -13.44)"/><path class="cls-2" d="M97.34-7948.15v16383m43.52-16383v16383m-81.57-16383v16383M69.24,67.25m66.59,134.08V49.27a35.83,35.83,0,0,0-71.66,0V201.33a66.53,66.53,0,1,0,71.66,0ZM100,313.7A56.3,56.3,0,0,1,71.86,208.63a5.11,5.11,0,0,0,2.55-4.43V49.27a25.59,25.59,0,0,1,51.18,0V204.2a5.11,5.11,0,0,0,2.55,4.43A56.3,56.3,0,0,1,100,313.7Z" transform="translate(0 -13.44)"/></svg>